#!OML:ASF H:\BreakDance\Project 1\Capture day 1\Session 1\Male.ASF
:FULLY-SPECIFIED
:DEGREES
1837
root -24.1491 6.59874 10.1602 -38.5552 -68.4298 402.559
lowerback 27.4242 -0.10569 -1.85885
upperback 15.5516 -1.84693 2.19775
thorax 2.42328 -1.6963 3.88707
lowerneck -3.31503 -3.39611 -3.99936
upperneck -12.3554 -4.58341 2.85288
head -3.24584 -2.3365 1.70695
rclavicle 0 0
rhumerus -28.9743 -34.208 -60.8522
rradius 24.5311
rwrist -17.045
rhand -19.3659 -33.2665
rfingers 7.12502
rthumb 6.95195 -63.1324
lclavicle 0 0
lhumerus 62.9236 -0.318177 43.4813
lradius 92.5081
lwrist -1.76476
lhand -41.0337 336.975
lfingers 7.12502
lthumb -13.9641 366.486
rfemur -92.4285 3.78642 -12.9
rtibia 35.0615
rfoot -8.35682 -11.5413
rtoes 65.1905
lfemur 253.09 23.3049 313.897
ltibia 154.413
lfoot -23.4571 -25.6329
ltoes 42.1182
1838
root -24.165 6.51737 10.1501 -40.2341 -67.5207 404.003
lowerback 27.2769 -0.592346 -1.92796
upperback 15.3999 -2.45901 2.26136
thorax 2.37568 -2.00208 4.14067
lowerneck -2.87715 -3.72523 -4.37108
upperneck -12.1677 -4.96516 3.57506
head -3.22224 -2.53299 2.02264
rclavicle 3.18055e-014 0
rhumerus -29.6672 -33.1913 -60.8694
rradius 25.2939
rwrist -18.5794
rhand -18.4897 -32.392
rfingers 7.12502
rthumb 7.7977 -62.2282
lclavicle 3.18055e-014 0
lhumerus 62.9916 -2.78369 41.9544
lradius 92.1099
lwrist -1.74045
lhand -40.1326 337.824
lfingers 7.12502
lthumb -13.0956 367.393
rfemur -92.6104 5.0001 -16.3317
rtibia 34.9246
rfoot -11.262 -12.1341
rtoes 65.7301
lfemur 252.85 23.5902 312.824
ltibia 154.882
lfoot -21.8867 -26.5017
ltoes 44.525
1839
root -24.1793 6.45059 10.1384 -41.7853 -66.6394 405.386
lowerback 27.094 -1.08256 -1.93732
upperback 15.2337 -3.0619 2.35741
thorax 2.3308 -2.30006 4.39032
lowerneck -2.36989 -4.0599 -4.7247
upperneck -12.0692 -5.36788 4.23719
head -3.23939 -2.74043 2.32335
rclavicle 2.22639e-014 -6.67916e-014
rhumerus -30.0422 -32.2261 -60.8978
rradius 25.9392
rwrist -19.8193
rhand -17.3356 -31.2741
rfingers 7.12502
rthumb 8.91153 -61.0659
lclavicle 2.22639e-014 -6.67916e-014
lhumerus 63.143 -5.33358 40.4175
lradius 91.527
lwrist -1.67533
lhand -39.3457 338.814
lfingers 7.12502
lthumb -12.337 368.43
rfemur -92.9247 6.09297 -19.1895
rtibia 34.8401
rfoot -13.4376 -12.5438
rtoes 65.9652
lfemur 252.674 23.9023 311.764
ltibia 155.214
lfoot -20.4292 -27.1449
ltoes 46.7206
1840
root -24.191 6.39999 10.1262 -43.2545 -65.7875 406.763
lowerback 26.8666 -1.57702 -1.88523
upperback 15.0805 -3.66044 2.49459
thorax 2.32511 -2.59557 4.64335
lowerneck -1.93242 -4.35694 -5.10656
upperneck -11.982 -5.72815 4.83181
head -3.24716 -2.92446 2.60712
rclavicle -4.13472e-014 3.02153e-014
rhumerus -29.9451 -31.4637 -60.9292
rradius 26.3362
rwrist -20.5778
rhand -16.1355 -30.0191
rfingers 7.12502
rthumb 10.0694 -59.7582
lclavicle -4.13472e-014 3.02153e-014
lhumerus 63.4163 -7.8588 38.916
lradius 90.7556
lwrist -1.36148
lhand -38.466 339.564
lfingers 7.12502
lthumb -11.4887 369.229
rfemur -93.2756 6.86808 -20.735
rtibia 34.8537
rfoot -14.0884 -13.3182
rtoes 66.0499
lfemur 252.538 24.2388 310.665
ltibia 155.405
lfoot -19.0713 -27.673
ltoes 48.748
1841
root -24.1986 6.36657 10.1133 -44.6849 -64.9825 408.185
lowerback 26.596 -2.07504 -1.78638
upperback 14.9555 -4.26063 2.68175
thorax 2.37821 -2.89502 4.91726
lowerneck -1.53572 -4.61502 -5.40837
upperneck -11.978 -6.05237 5.27472
head -3.28128 -3.09035 2.82907
rclavicle -6.67916e-014 -4.29375e-014
rhumerus -29.3658 -30.6312 -61.0812
rradius 26.7125
rwrist -21.1589
rhand -15.3155 -29.0425
rfingers 7.12502
rthumb 10.8604 -58.7416
lclavicle -6.67916e-014 -4.29375e-014
lhumerus 63.7966 -10.272 37.4226
lradius 89.7641
lwrist -0.932062
lhand -37.5998 340.048
lfingers 7.12502
lthumb -10.6532 369.758
rfemur -93.5942 7.30137 -20.708
rtibia 35.0033
rfoot -13.1196 -14.4867
rtoes 66.046
lfemur 252.395 24.6143 309.513
ltibia 155.455
lfoot -17.8713 -28.0286
ltoes 50.5933
1842
root -24.1999 6.35243 10.101 -46.1873 -64.1603 409.796
lowerback 26.2872 -2.58781 -1.67705
upperback 14.8371 -4.88259 2.88731
thorax 2.46514 -3.20724 5.20243
lowerneck -1.24946 -4.81951 -5.6493
upperneck -11.9411 -6.31441 5.57496
head -3.29075 -3.22286 2.98699
rclavicle 4.29375e-014 -3.18055e-014
rhumerus -28.3007 -29.8069 -61.3026
rradius 26.9818
rwrist -21.5615
rhand -15.1007 -28.4161
rfingers 7.12502
rthumb 11.0677 -58.1043
lclavicle 4.29375e-014 -3.18055e-014
lhumerus 64.2532 -12.5401 35.9139
lradius 88.5523
lwrist -0.42408
lhand -36.7581 340.326
lfingers 7.12502
lthumb -9.84127 370.076
rfemur -93.8486 7.37409 -19.1351
rtibia 35.3049
rfoot -10.6961 -15.7217
rtoes 65.8878
lfemur 252.213 25.0071 308.176
ltibia 155.341
lfoot -16.7395 -28.1814
ltoes 52.4623
1843
root -24.1938 6.35747 10.0883 -47.7613 -63.2684 411.606
lowerback 25.9421 -3.1373 -1.59619
upperback 14.6871 -5.55775 3.0854
thorax 2.54583 -3.54594 5.50018
lowerneck -1.04755 -4.94699 -5.83872
upperneck -11.7631 -6.47999 5.74395
head -3.24562 -3.30329 3.08153
rclavicle 2.54444e-014 1.74931e-014
rhumerus -26.9421 -28.6612 -61.6465
rradius 27.3566
rwrist -22.1616
rhand -15.6167 -28.3135
rfingers 7.12502
rthumb 10.57 -58.0277
lclavicle 2.54444e-014 1.74931e-014
lhumerus 64.6986 -14.6667 34.3705
lradius 87.1297
lwrist 0.216355
lhand -35.8921 340.42
lfingers 7.12502
lthumb -9.00566 370.208
rfemur -94.0268 7.17385 -16.4325
rtibia 35.7467
rfoot -7.57799 -16.4427
rtoes 65.5004
lfemur 252.018 25.3885 306.614
ltibia 155.048
lfoot -15.7577 -28.1778
ltoes 54.2198
